<svg version="1.1" xmlns="http://www.w3.org/2000/svg" viewBox="0 0 1966.9846464575671 683.9844130839917" width="1966.9846464575671" height="683.9844130839917">
  <!-- svg-source:excalidraw -->
  
  <defs>
    <style class="style-fonts">
      @font-face {
        font-family: "Virgil";
        src: url("https://excalidraw.com/Virgil.woff2");
      }
      @font-face {
        font-family: "Cascadia";
        src: url("https://excalidraw.com/Cascadia.woff2");
      }
      @font-face {
        font-family: "Assistant";
        src: url("https://excalidraw.com/Assistant-Regular.woff2");
      }
    </style>
    
  </defs>
  <rect x="0" y="0" width="1966.9846464575671" height="683.9844130839917" fill="#ffffff"></rect><g stroke-linecap="round" transform="translate(837.1704302062855 291.66877731831835) rotate(0 133.390625 108.30078125)"><path d="M32 0 C79.35 -0.09, 123.97 -1.26, 234.78 0 M32 0 C86.43 1.23, 141.7 0.94, 234.78 0 M234.78 0 C256.53 0.15, 266.19 11.9, 266.78 32 M234.78 0 C258.2 1.26, 264.89 10.62, 266.78 32 M266.78 32 C266.06 81.25, 266.91 125.98, 266.78 184.6 M266.78 32 C266.38 85.15, 266.15 138.3, 266.78 184.6 M266.78 184.6 C265.01 204.89, 257.44 217.19, 234.78 216.6 M266.78 184.6 C266.89 205.91, 254.11 217.66, 234.78 216.6 M234.78 216.6 C175.92 219.49, 113.22 218.73, 32 216.6 M234.78 216.6 C163.66 218.29, 91.97 217.43, 32 216.6 M32 216.6 C10.42 216.51, 0.38 207.1, 0 184.6 M32 216.6 C11.93 215.66, 1.46 206.7, 0 184.6 M0 184.6 C-2.95 136.66, -0.65 86.14, 0 32 M0 184.6 C-0.29 144.61, 0.26 104.37, 0 32 M0 32 C-0.98 9.4, 11.49 0.53, 32 0 M0 32 C0.22 9.77, 9.2 -0.2, 32 0" stroke="#1e1e1e" stroke-width="2" fill="none"></path></g><g transform="translate(935.3410768737659 362.46955856831835) rotate(0 35.21997833251953 37.5)"><text x="35.21997833251953" y="17.52" font-family="Virgil, Segoe UI Emoji" font-size="20px" fill="#1e1e1e" text-anchor="middle" style="white-space: pre;" direction="ltr" dominant-baseline="alphabetic">Lambdq</text><text x="35.21997833251953" y="42.519999999999996" font-family="Virgil, Segoe UI Emoji" font-size="20px" fill="#1e1e1e" text-anchor="middle" style="white-space: pre;" direction="ltr" dominant-baseline="alphabetic">+</text><text x="35.21997833251953" y="67.52" font-family="Virgil, Segoe UI Emoji" font-size="20px" fill="#1e1e1e" text-anchor="middle" style="white-space: pre;" direction="ltr" dominant-baseline="alphabetic">otel</text></g><g stroke-linecap="round" transform="translate(1205.8369308894817 381.1283463854303) rotate(0 114.65772008024567 42.6340131343446)"><path d="M21.32 0 C78.36 -1.66, 134.82 -1.26, 208 0 M21.32 0 C91.56 1.62, 162.64 0.22, 208 0 M208 0 C222.32 -1.08, 229.9 6.9, 229.32 21.32 M208 0 C224.29 1.63, 228.41 9.04, 229.32 21.32 M229.32 21.32 C228.63 37.41, 227.24 56.56, 229.32 63.95 M229.32 21.32 C228.54 29, 228.37 37.91, 229.32 63.95 M229.32 63.95 C230.85 79.77, 220.38 87.18, 208 85.27 M229.32 63.95 C229.76 77.59, 220.33 83.04, 208 85.27 M208 85.27 C154.14 82.65, 98.8 84.7, 21.32 85.27 M208 85.27 C136.97 83.77, 66.44 83.92, 21.32 85.27 M21.32 85.27 C6.55 84.07, 0.2 76.63, 0 63.95 M21.32 85.27 C5.69 86.08, -1.46 76.32, 0 63.95 M0 63.95 C-1.22 47.75, 1.74 34.31, 0 21.32 M0 63.95 C-0.85 48.22, -0.16 32.91, 0 21.32 M0 21.32 C-1.6 7.97, 8.29 1.88, 21.32 0 M0 21.32 C-1.93 7.88, 8.71 -1.52, 21.32 0" stroke="#1e1e1e" stroke-width="2" fill="none"></path></g><g transform="translate(1301.8746634819345 411.2623595197749) rotate(0 18.61998748779297 12.5)"><text x="18.61998748779297" y="17.52" font-family="Virgil, Segoe UI Emoji" font-size="20px" fill="#1e1e1e" text-anchor="middle" style="white-space: pre;" direction="ltr" dominant-baseline="alphabetic">API</text></g><g stroke-linecap="round" transform="translate(1204.2582626828384 481.51863831914466) rotate(0 114.65772008024567 42.6340131343446)"><path d="M21.32 0 C84.26 2.95, 144.56 3.04, 208 0 M21.32 0 C85.97 -1.47, 149.97 -0.35, 208 0 M208 0 C223.7 -1.95, 229.04 8, 229.32 21.32 M208 0 C221.96 -1.84, 228.4 5.5, 229.32 21.32 M229.32 21.32 C228.12 30, 230.67 41.92, 229.32 63.95 M229.32 21.32 C229.29 31.91, 228.86 43.1, 229.32 63.95 M229.32 63.95 C228.71 78.97, 223.17 86.53, 208 85.27 M229.32 63.95 C227.12 76.14, 221.23 86.88, 208 85.27 M208 85.27 C137.71 82.79, 68.01 83.67, 21.32 85.27 M208 85.27 C145.2 87.9, 83.79 87.91, 21.32 85.27 M21.32 85.27 C5.84 84.52, -0.04 76.94, 0 63.95 M21.32 85.27 C5.11 84.96, 0.23 78.19, 0 63.95 M0 63.95 C0.74 51.26, -1.86 40.51, 0 21.32 M0 63.95 C0.53 51.84, 0.65 37.7, 0 21.32 M0 21.32 C-0.67 9.04, 6.73 -0.17, 21.32 0 M0 21.32 C-0.67 7.09, 5.73 -0.94, 21.32 0" stroke="#1e1e1e" stroke-width="2" fill="none"></path></g><g transform="translate(1268.146016637596 511.65265145348917) rotate(0 50.76996612548828 12.5)"><text x="50.76996612548828" y="17.52" font-family="Virgil, Segoe UI Emoji" font-size="20px" fill="#1e1e1e" text-anchor="middle" style="white-space: pre;" direction="ltr" dominant-baseline="alphabetic">DynamoDB</text></g><g stroke-linecap="round" transform="translate(71.95013874974211 283.4746341183712) rotate(0 133.390625 108.30078125)"><path d="M32 0 C73.12 2.75, 117.02 -0.41, 234.78 0 M32 0 C107.23 -0.84, 183.61 -1.41, 234.78 0 M234.78 0 C256.95 0.2, 268.04 11.32, 266.78 32 M234.78 0 C256.97 0.42, 267.21 11.71, 266.78 32 M266.78 32 C269.74 70.41, 267.42 107.29, 266.78 184.6 M266.78 32 C267.56 76.23, 268.2 119.16, 266.78 184.6 M266.78 184.6 C265.91 206.9, 257.45 217.87, 234.78 216.6 M266.78 184.6 C268.36 205.2, 254.67 217.55, 234.78 216.6 M234.78 216.6 C163.83 217.18, 94.93 217.13, 32 216.6 M234.78 216.6 C169.35 218.27, 102.39 217.53, 32 216.6 M32 216.6 C10.36 215.66, -1.47 204.66, 0 184.6 M32 216.6 C12.49 216.48, -2.07 204.52, 0 184.6 M0 184.6 C-0.25 140.45, -0.3 97.43, 0 32 M0 184.6 C1.56 141, 1.5 97.57, 0 32 M0 32 C-1 9.22, 9.67 -1.68, 32 0 M0 32 C-1.83 12.22, 10.34 1.24, 32 0" stroke="#1e1e1e" stroke-width="2" fill="none"></path></g><g transform="translate(81.76087635960539 366.7754153683712) rotate(0 123.57988739013672 25)"><text x="123.57988739013672" y="17.52" font-family="Virgil, Segoe UI Emoji" font-size="20px" fill="#1e1e1e" text-anchor="middle" style="white-space: pre;" direction="ltr" dominant-baseline="alphabetic">Cold-start measurement </text><text x="123.57988739013672" y="42.519999999999996" font-family="Virgil, Segoe UI Emoji" font-size="20px" fill="#1e1e1e" text-anchor="middle" style="white-space: pre;" direction="ltr" dominant-baseline="alphabetic">runner</text></g><g stroke-linecap="round" transform="translate(1690.2033964575671 286.63466410344176) rotate(0 133.390625 108.30078125)"><path d="M32 0 C85.65 -1.56, 137.74 -0.7, 234.78 0 M32 0 C90.25 1.84, 149.01 1.55, 234.78 0 M234.78 0 C256.05 -1.81, 265.2 9.03, 266.78 32 M234.78 0 C255.04 -0.72, 268.09 8.93, 266.78 32 M266.78 32 C267.02 76.76, 266.8 123.02, 266.78 184.6 M266.78 32 C266.03 75.12, 265.39 118.22, 266.78 184.6 M266.78 184.6 C268.5 204.25, 255.37 216.38, 234.78 216.6 M266.78 184.6 C268.46 207.69, 254.68 216.69, 234.78 216.6 M234.78 216.6 C177.34 218.5, 116.86 219.58, 32 216.6 M234.78 216.6 C189.1 218.58, 141.53 218.09, 32 216.6 M32 216.6 C11.16 218.05, -1.82 206.3, 0 184.6 M32 216.6 C9.4 216.51, -0.41 204.23, 0 184.6 M0 184.6 C-0.11 124.47, -1.78 66.01, 0 32 M0 184.6 C0.27 133.46, -1 82.52, 0 32 M0 32 C-0.83 11.54, 9.19 -0.13, 32 0 M0 32 C0.37 12.57, 10.07 1.29, 32 0" stroke="#1e1e1e" stroke-width="2" fill="none"></path></g><g transform="translate(1699.354115146532 344.93544535344176) rotate(0 124.23990631103516 50)"><text x="124.23990631103516" y="17.52" font-family="Virgil, Segoe UI Emoji" font-size="20px" fill="#1e1e1e" text-anchor="middle" style="white-space: pre;" direction="ltr" dominant-baseline="alphabetic">Otel </text><text x="124.23990631103516" y="42.519999999999996" font-family="Virgil, Segoe UI Emoji" font-size="20px" fill="#1e1e1e" text-anchor="middle" style="white-space: pre;" direction="ltr" dominant-baseline="alphabetic">Backend</text><text x="124.23990631103516" y="67.52" font-family="Virgil, Segoe UI Emoji" font-size="20px" fill="#1e1e1e" text-anchor="middle" style="white-space: pre;" direction="ltr" dominant-baseline="alphabetic">e.g Honeycomb, Datadog, </text><text x="124.23990631103516" y="92.52" font-family="Virgil, Segoe UI Emoji" font-size="20px" fill="#1e1e1e" text-anchor="middle" style="white-space: pre;" direction="ltr" dominant-baseline="alphabetic">Instana, Baselime</text></g><g mask="url(#mask-XnqRKOPR1FbSqPiaiuDNU)" stroke-linecap="round"><g transform="translate(347.4597578206798 376.91861471994093) rotate(0 240.8184831518305 1.2196166276864346)"><path d="M0.93 1.05 C81.17 1.11, 401.45 1.43, 481.74 1.52 M-0.04 0.56 C80.02 1.25, 400.44 2.25, 480.85 2.58" stroke="#1e1e1e" stroke-width="2" fill="none"></path></g><g transform="translate(347.4597578206798 376.91861471994093) rotate(0 240.8184831518305 1.2196166276864346)"><path d="M457.33 11.05 C466.68 8.28, 471.09 7.06, 480.85 2.58 M457.33 11.05 C463.36 9.86, 467.95 6.23, 480.85 2.58" stroke="#1e1e1e" stroke-width="2" fill="none"></path></g><g transform="translate(347.4597578206798 376.91861471994093) rotate(0 240.8184831518305 1.2196166276864346)"><path d="M457.39 -6.06 C466.89 -3.24, 471.27 1.13, 480.85 2.58 M457.39 -6.06 C463.57 -3.27, 468.15 -2.93, 480.85 2.58" stroke="#1e1e1e" stroke-width="2" fill="none"></path></g></g><mask id="mask-XnqRKOPR1FbSqPiaiuDNU"><rect x="0" y="0" fill="#fff" width="929.0967241243408" height="479.3578479753138"></rect><rect x="486.6283233699712" y="365.6382313476274" fill="#000" width="203.29983520507812" height="25" opacity="1"></rect></mask><g transform="translate(486.628323369971 365.6382313476273) rotate(0 101.682313485588 12.84991843269205)"><text x="101.64991760253906" y="17.52" font-family="Virgil, Segoe UI Emoji" font-size="20px" fill="#1e1e1e" text-anchor="middle" style="white-space: pre;" direction="ltr" dominant-baseline="alphabetic">invoke as cold start</text></g><g mask="url(#mask-ObrdpDvgg7BW7gnS6LoVN)" stroke-linecap="round"><g transform="translate(813.2188634120977 447.1462183661224) rotate(0 -225.43365641700768 0)"><path d="M0.81 -0.18 C-74.47 -0.43, -375.6 -1.23, -450.87 -1.16 M-0.22 -1.33 C-75.74 -1.5, -376.6 -0.74, -451.82 -0.23" stroke="#1e1e1e" stroke-width="2" fill="none"></path></g><g transform="translate(813.2188634120977 447.1462183661224) rotate(0 -225.43365641700768 0)"><path d="M-428.37 -8.88 C-437.34 -5.52, -447.65 -2.25, -451.82 -0.23 M-428.37 -8.88 C-435.44 -6.58, -443.65 -3.79, -451.82 -0.23" stroke="#1e1e1e" stroke-width="2" fill="none"></path></g><g transform="translate(813.2188634120977 447.1462183661224) rotate(0 -225.43365641700768 0)"><path d="M-428.29 8.22 C-437.34 5.25, -447.67 2.18, -451.82 -0.23 M-428.29 8.22 C-435.45 5, -443.69 2.26, -451.82 -0.23" stroke="#1e1e1e" stroke-width="2" fill="none"></path></g></g><mask id="mask-ObrdpDvgg7BW7gnS6LoVN"><rect x="0" y="0" fill="#fff" width="1364.0861762461132" height="547.1462183661224"></rect><rect x="532.0652668095431" y="434.6462183661224" fill="#000" width="111.43988037109375" height="25" opacity="1"></rect></mask><g transform="translate(532.0652668095431 434.6462183661224) rotate(0 55.64877394178404 11.731577433523825)"><text x="55.719940185546875" y="17.52" font-family="Virgil, Segoe UI Emoji" font-size="20px" fill="#1e1e1e" text-anchor="middle" style="white-space: pre;" direction="ltr" dominant-baseline="alphabetic">get results</text></g><g transform="translate(364.5025329352176 479.99117881450434) rotate(0 228.41177238282876 96.9966171347437)"><text x="0" y="15.105606508450755" font-family="Virgil, Segoe UI Emoji" font-size="17.24384304617666px" fill="#1e1e1e" text-anchor="start" style="white-space: pre;" direction="ltr" dominant-baseline="alphabetic">Results: </text><text x="0" y="36.66041031617158" font-family="Virgil, Segoe UI Emoji" font-size="17.24384304617666px" fill="#1e1e1e" text-anchor="start" style="white-space: pre;" direction="ltr" dominant-baseline="alphabetic">* initDuration</text><text x="0" y="58.21521412389241" font-family="Virgil, Segoe UI Emoji" font-size="17.24384304617666px" fill="#1e1e1e" text-anchor="start" style="white-space: pre;" direction="ltr" dominant-baseline="alphabetic">    - time the code took to be sourced </text><text x="0" y="79.77001793161324" font-family="Virgil, Segoe UI Emoji" font-size="17.24384304617666px" fill="#1e1e1e" text-anchor="start" style="white-space: pre;" direction="ltr" dominant-baseline="alphabetic">* duration</text><text x="0" y="101.32482173933406" font-family="Virgil, Segoe UI Emoji" font-size="17.24384304617666px" fill="#1e1e1e" text-anchor="start" style="white-space: pre;" direction="ltr" dominant-baseline="alphabetic">    - time the invocation took</text><text x="0" y="122.8796255470549" font-family="Virgil, Segoe UI Emoji" font-size="17.24384304617666px" fill="#1e1e1e" text-anchor="start" style="white-space: pre;" direction="ltr" dominant-baseline="alphabetic">* responseTime</text><text x="0" y="144.43442935477572" font-family="Virgil, Segoe UI Emoji" font-size="17.24384304617666px" fill="#1e1e1e" text-anchor="start" style="white-space: pre;" direction="ltr" dominant-baseline="alphabetic">    -  response time of the caller of lambda function</text><text x="0" y="165.98923316249656" font-family="Virgil, Segoe UI Emoji" font-size="17.24384304617666px" fill="#1e1e1e" text-anchor="start" style="white-space: pre;" direction="ltr" dominant-baseline="alphabetic">* used memory</text><text x="0" y="187.54403697021738" font-family="Virgil, Segoe UI Emoji" font-size="17.24384304617666px" fill="#1e1e1e" text-anchor="start" style="white-space: pre;" direction="ltr" dominant-baseline="alphabetic">    - consumed memory of the invocation </text></g><g transform="translate(923.0542082452649 560.9603320565582) rotate(0 175.30477905273438 53.88700951930207)"><text x="0" y="15.105606508450755" font-family="Virgil, Segoe UI Emoji" font-size="17.24384304617666px" fill="#1e1e1e" text-anchor="start" style="white-space: pre;" direction="ltr" dominant-baseline="alphabetic">Lambda: </text><text x="0" y="36.66041031617158" font-family="Virgil, Segoe UI Emoji" font-size="17.24384304617666px" fill="#1e1e1e" text-anchor="start" style="white-space: pre;" direction="ltr" dominant-baseline="alphabetic">* uses different ways of instrumentation</text><text x="0" y="58.21521412389241" font-family="Virgil, Segoe UI Emoji" font-size="17.24384304617666px" fill="#1e1e1e" text-anchor="start" style="white-space: pre;" direction="ltr" dominant-baseline="alphabetic">* makes an external api call</text><text x="0" y="79.77001793161324" font-family="Virgil, Segoe UI Emoji" font-size="17.24384304617666px" fill="#1e1e1e" text-anchor="start" style="white-space: pre;" direction="ltr" dominant-baseline="alphabetic">* makes an dynamoDB query</text><text x="0" y="101.32482173933406" font-family="Virgil, Segoe UI Emoji" font-size="17.24384304617666px" fill="#1e1e1e" text-anchor="start" style="white-space: pre;" direction="ltr" dominant-baseline="alphabetic">* sends the trace data to a backend</text></g><g transform="translate(371.08003886224685 206.06340480189218) rotate(0 222.21203744790125 68.89272880723868)"><text x="0" y="13.79429267088939" font-family="Virgil, Segoe UI Emoji" font-size="15.746909441654553px" fill="#1e1e1e" text-anchor="start" style="white-space: pre;" direction="ltr" dominant-baseline="alphabetic">Trigger a cold-start: </text><text x="0" y="33.477929472957584" font-family="Virgil, Segoe UI Emoji" font-size="15.746909441654553px" fill="#1e1e1e" text-anchor="start" style="white-space: pre;" direction="ltr" dominant-baseline="alphabetic">* update the lambda configuration</text><text x="0" y="53.16156627502578" font-family="Virgil, Segoe UI Emoji" font-size="15.746909441654553px" fill="#1e1e1e" text-anchor="start" style="white-space: pre;" direction="ltr" dominant-baseline="alphabetic">    - set an environment variable to a new value </text><text x="0" y="72.84520307709397" font-family="Virgil, Segoe UI Emoji" font-size="15.746909441654553px" fill="#1e1e1e" text-anchor="start" style="white-space: pre;" direction="ltr" dominant-baseline="alphabetic">(current timestamp)</text><text x="0" y="92.52883987916216" font-family="Virgil, Segoe UI Emoji" font-size="15.746909441654553px" fill="#1e1e1e" text-anchor="start" style="white-space: pre;" direction="ltr" dominant-baseline="alphabetic">* wait x-ms to make sure the updated configuration </text><text x="0" y="112.21247668123036" font-family="Virgil, Segoe UI Emoji" font-size="15.746909441654553px" fill="#1e1e1e" text-anchor="start" style="white-space: pre;" direction="ltr" dominant-baseline="alphabetic">propagated to all the AZs</text><text x="0" y="131.89611348329856" font-family="Virgil, Segoe UI Emoji" font-size="15.746909441654553px" fill="#1e1e1e" text-anchor="start" style="white-space: pre;" direction="ltr" dominant-baseline="alphabetic"></text></g><g stroke-linecap="round"><g transform="translate(1122.0071255508224 418.15427275884815) rotate(0 38.67351860940687 1.0064239749151511)"><path d="M0.76 -0.73 C13.79 -0.63, 64.29 0.74, 77.23 1.11 M-0.31 1.5 C12.65 1.68, 63.15 2, 76.22 2.18" stroke="#1e1e1e" stroke-width="2" fill="none"></path></g><g transform="translate(1122.0071255508224 418.15427275884815) rotate(0 38.67351860940687 1.0064239749151511)"><path d="M52.65 10.5 C56.52 8.35, 61.38 8.43, 76.22 2.18 M52.65 10.5 C58.44 9.53, 64.14 5.85, 76.22 2.18" stroke="#1e1e1e" stroke-width="2" fill="none"></path></g><g transform="translate(1122.0071255508224 418.15427275884815) rotate(0 38.67351860940687 1.0064239749151511)"><path d="M52.81 -6.6 C56.73 -5.03, 61.54 -1.22, 76.22 2.18 M52.81 -6.6 C58.56 -3.12, 64.22 -2.36, 76.22 2.18" stroke="#1e1e1e" stroke-width="2" fill="none"></path></g></g><mask></mask><g stroke-linecap="round"><g transform="translate(1119.672221929019 472.5088353964569) rotate(0 39.58409268194919 22.23526035245908)"><path d="M1.02 0.17 C14.33 7.6, 66.2 37.4, 79.36 44.62 M0.1 -0.79 C13.31 6.86, 65.25 38.72, 78.52 46.23" stroke="#1e1e1e" stroke-width="2" fill="none"></path></g><g transform="translate(1119.672221929019 472.5088353964569) rotate(0 39.58409268194919 22.23526035245908)"><path d="M53.95 41.61 C60.56 42.92, 66.86 45.18, 78.52 46.23 M53.95 41.61 C59.71 41.82, 64.43 43.97, 78.52 46.23" stroke="#1e1e1e" stroke-width="2" fill="none"></path></g><g transform="translate(1119.672221929019 472.5088353964569) rotate(0 39.58409268194919 22.23526035245908)"><path d="M62.67 26.9 C67.03 32.07, 71.08 38.13, 78.52 46.23 M62.67 26.9 C66.51 30.39, 69.34 35.74, 78.52 46.23" stroke="#1e1e1e" stroke-width="2" fill="none"></path></g></g><mask></mask><g mask="url(#mask-hqDgeOhjyEWkkXWyQtYmt)" stroke-linecap="round"><g transform="translate(1126.5389089350115 338.6450220972888) rotate(0 275.7582521287088 -2.1691706254698317)"><path d="M1.03 -0.1 C93.14 -0.73, 459.7 -2.62, 551.48 -3.23 M0.11 -1.21 C92.16 -2.19, 458.69 -4, 550.51 -4.78" stroke="#1e1e1e" stroke-width="2" fill="none"></path></g><g transform="translate(1126.5389089350115 338.6450220972888) rotate(0 275.7582521287088 -2.1691706254698317)"><path d="M527.07 3.93 C531.58 1.9, 538.32 0.47, 550.51 -4.78 M527.07 3.93 C534.17 0.81, 542.45 -1.9, 550.51 -4.78" stroke="#1e1e1e" stroke-width="2" fill="none"></path></g><g transform="translate(1126.5389089350115 338.6450220972888) rotate(0 275.7582521287088 -2.1691706254698317)"><path d="M526.96 -13.17 C531.57 -11.75, 538.33 -9.74, 550.51 -4.78 M526.96 -13.17 C534.12 -10.41, 542.44 -7.23, 550.51 -4.78" stroke="#1e1e1e" stroke-width="2" fill="none"></path></g></g><mask id="mask-hqDgeOhjyEWkkXWyQtYmt"><rect x="0" y="0" fill="#fff" width="1778.0554131924291" height="442.98336334822847"></rect><rect x="1327.9972266765135" y="323.975851471819" fill="#000" width="148.59986877441406" height="25" opacity="1"></rect></mask><g transform="translate(1327.9972266765133 323.975851471819) rotate(0 74.33432170047877 12.229235780467235)"><text x="74.29993438720703" y="17.52" font-family="Virgil, Segoe UI Emoji" font-size="20px" fill="#1e1e1e" text-anchor="middle" style="white-space: pre;" direction="ltr" dominant-baseline="alphabetic">sent otel-data</text></g><g transform="translate(10 10) rotate(0 462.5737915039063 70)"><text x="0" y="24.528" font-family="Virgil, Segoe UI Emoji" font-size="28px" fill="#1e1e1e" text-anchor="start" style="white-space: pre;" direction="ltr" dominant-baseline="alphabetic">Goals:</text><text x="0" y="59.528" font-family="Virgil, Segoe UI Emoji" font-size="28px" fill="#1e1e1e" text-anchor="start" style="white-space: pre;" direction="ltr" dominant-baseline="alphabetic">* compare impact of different ways of adding tracing to a lambda</text><text x="0" y="94.52799999999999" font-family="Virgil, Segoe UI Emoji" font-size="28px" fill="#1e1e1e" text-anchor="start" style="white-space: pre;" direction="ltr" dominant-baseline="alphabetic">* compare no tracing vs. x-ray vs. otel</text><text x="0" y="129.528" font-family="Virgil, Segoe UI Emoji" font-size="28px" fill="#1e1e1e" text-anchor="start" style="white-space: pre;" direction="ltr" dominant-baseline="alphabetic">* compare different ways of otel instrumentations</text></g></svg>